<svg id="visual" viewBox="0 0 900 600" width="900" height="600" xmlns="http://www.w3.org/2000/svg" xmlns:xlink="http://www.w3.org/1999/xlink" version="1.1"><g transform="translate(430.10649691205936 298.55031813450887)"><path d="M118.4 -195.8C160.9 -180.6 207.7 -163.8 234.1 -130.9C260.4 -98 266.2 -49 267.1 0.5C267.9 50 263.9 100 237.3 132.5C210.7 165 161.6 179.9 118.3 196.9C75 213.9 37.5 233 -2.2 236.9C-42 240.7 -84 229.5 -119.7 208.1C-155.3 186.7 -184.6 155.1 -202.6 118.7C-220.6 82.3 -227.3 41.2 -227.4 -0.1C-227.6 -41.3 -221.2 -82.7 -204.9 -122.1C-188.7 -161.5 -162.6 -198.9 -126.8 -217.9C-91 -236.9 -45.5 -237.5 -3.8 -231C38 -224.5 76 -211 118.4 -195.8" fill="#190b28"></path></g></svg>