<svg id="visual" viewBox="0 0 960 550" width="960" height="550" xmlns="http://www.w3.org/2000/svg" xmlns:xlink="http://www.w3.org/1999/xlink" version="1.1"><rect x="0" y="0" width="960" height="550" fill="#190B28"></rect><path d="M0 238L26.7 250C53.3 262 106.7 286 160 295.7C213.3 305.3 266.7 300.7 320 287.7C373.3 274.7 426.7 253.3 480 244.3C533.3 235.3 586.7 238.7 640 252.5C693.3 266.3 746.7 290.7 800 294.2C853.3 297.7 906.7 280.3 933.3 271.7L960 263L960 551L933.3 551C906.7 551 853.3 551 800 551C746.7 551 693.3 551 640 551C586.7 551 533.3 551 480 551C426.7 551 373.3 551 320 551C266.7 551 213.3 551 160 551C106.7 551 53.3 551 26.7 551L0 551Z" fill="#bf4578" stroke-linecap="round" stroke-linejoin="miter"></path></svg>