<svg id="visual" viewBox="0 0 1500 1000" width="1500" height="1000" xmlns="http://www.w3.org/2000/svg" xmlns:xlink="http://www.w3.org/1999/xlink" version="1.1"><rect x="0" y="0" width="1500" height="1000" fill="#bf4578"></rect><path d="M0 568L27.8 583C55.7 598 111.3 628 166.8 636C222.3 644 277.7 630 333.2 617.8C388.7 605.7 444.3 595.3 500 570.3C555.7 545.3 611.3 505.7 666.8 486.3C722.3 467 777.7 468 833.2 467C888.7 466 944.3 463 1000 494C1055.7 525 1111.3 590 1166.8 614.7C1222.3 639.3 1277.7 623.7 1333.2 600.2C1388.7 576.7 1444.3 545.3 1472.2 529.7L1500 514L1500 1001L1472.2 1001C1444.3 1001 1388.7 1001 1333.2 1001C1277.7 1001 1222.3 1001 1166.8 1001C1111.3 1001 1055.7 1001 1000 1001C944.3 1001 888.7 1001 833.2 1001C777.7 1001 722.3 1001 666.8 1001C611.3 1001 555.7 1001 500 1001C444.3 1001 388.7 1001 333.2 1001C277.7 1001 222.3 1001 166.8 1001C111.3 1001 55.7 1001 27.8 1001L0 1001Z" fill="#190b28" stroke-linecap="round" stroke-linejoin="miter"></path></svg>