<svg xmlns="http://www.w3.org/2000/svg" width="375" viewBox="0 0 375 375" height="375" version="1.0"><defs><clipPath id="a"><path d="M 122 111 L 253 111 L 253 194.1875 L 122 194.1875 Z M 122 111"/></clipPath><clipPath id="b"><path d="M 160 108.6875 L 177 108.6875 L 177 194 L 160 194 Z M 160 108.6875"/></clipPath><clipPath id="c"><path d="M 198 108.6875 L 215 108.6875 L 215 194 L 198 194 Z M 198 108.6875"/></clipPath></defs><g clip-path="url(#a)"><path fill="#BF4578" d="M 252.523438 157.859375 L 252.523438 147.523438 C 249.917969 147.417969 247.933594 146.898438 246.582031 145.855469 C 245.226562 144.808594 244.390625 143.347656 243.871094 141.363281 C 243.347656 139.382812 243.140625 136.039062 243.140625 131.445312 C 243.140625 126.539062 242.933594 122.992188 242.410156 120.800781 C 241.890625 118.605469 241.054688 116.832031 239.699219 115.371094 C 238.34375 114.011719 236.574219 112.96875 234.382812 112.238281 C 232.195312 111.613281 229.171875 111.195312 225.3125 111.195312 L 223.019531 111.195312 L 223.019531 121.53125 C 226.878906 121.53125 229.277344 121.945312 230.316406 122.679688 C 231.359375 123.410156 231.777344 125.183594 231.777344 127.792969 C 231.777344 135.832031 232.296875 141.46875 233.238281 144.707031 C 234.175781 147.941406 236.46875 150.550781 239.910156 152.640625 C 237.300781 154.101562 235.21875 156.1875 233.863281 159.113281 C 232.507812 161.929688 231.777344 168.089844 231.777344 177.589844 C 231.777344 179.886719 231.464844 181.242188 230.839844 181.976562 C 230.214844 182.601562 229.484375 183.121094 228.753906 183.4375 C 228.023438 183.75 226.148438 183.855469 223.019531 183.855469 L 223.019531 194.1875 L 225.3125 194.1875 C 231.152344 194.1875 235.007812 193.457031 237.09375 192.101562 C 239.179688 190.640625 240.636719 189.074219 241.578125 187.195312 C 242.515625 185.316406 243.035156 181.035156 243.035156 174.144531 C 243.035156 169.550781 243.246094 166.210938 243.765625 164.226562 C 244.285156 162.242188 245.121094 160.679688 246.476562 159.632812 C 247.832031 158.589844 249.8125 157.964844 252.417969 157.859375 Z M 122.214844 157.859375 C 124.824219 157.964844 126.804688 158.589844 128.15625 159.632812 C 129.511719 160.679688 130.347656 162.140625 130.867188 164.121094 C 131.390625 166.105469 131.597656 169.445312 131.597656 174.144531 C 131.597656 180.828125 132.121094 185.210938 133.058594 187.195312 C 133.996094 189.179688 135.664062 190.847656 137.851562 192.207031 C 140.042969 193.5625 143.898438 194.1875 149.425781 194.1875 L 151.71875 194.1875 L 151.71875 183.855469 C 148.070312 183.855469 145.777344 183.4375 144.628906 182.601562 C 143.480469 181.765625 142.960938 180.09375 142.960938 177.589844 C 142.960938 169.34375 142.441406 163.601562 141.398438 160.363281 C 140.355469 157.128906 138.164062 154.621094 134.933594 152.742188 C 138.476562 150.65625 140.667969 147.941406 141.605469 144.601562 C 142.542969 141.261719 142.960938 135.726562 142.960938 127.898438 C 142.960938 125.183594 143.480469 123.511719 144.523438 122.78125 C 145.566406 122.050781 147.964844 121.632812 151.71875 121.632812 L 151.71875 111.300781 L 149.425781 111.300781 C 144.421875 111.300781 140.667969 111.925781 138.164062 113.179688 C 135.664062 114.429688 133.890625 116.308594 133.058594 118.816406 C 132.121094 121.320312 131.703125 125.496094 131.703125 131.445312 C 131.703125 136.039062 131.492188 139.277344 130.972656 141.261719 C 130.453125 143.242188 129.617188 144.808594 128.261719 145.855469 C 126.90625 146.898438 124.925781 147.523438 122.320312 147.628906 L 122.320312 157.964844 Z M 122.214844 157.859375"/></g><g clip-path="url(#b)"><path fill="#F6F6E9" d="M 164.539062 189.074219 L 172.671875 189.074219 C 174.859375 189.074219 176.734375 190.847656 176.734375 193.144531 L 176.734375 112.761719 C 176.734375 110.566406 174.964844 108.6875 172.671875 108.6875 L 164.539062 108.6875 C 162.351562 108.6875 160.472656 110.464844 160.472656 112.761719 L 160.472656 193.144531 C 160.472656 190.953125 162.246094 189.074219 164.539062 189.074219 Z M 164.539062 189.074219" fill-rule="evenodd"/></g><path fill="#F6F6E9" d="M 183.71875 188.03125 L 191.851562 188.03125 C 194.039062 188.03125 195.917969 189.804688 195.917969 192.101562 L 195.917969 131.34375 C 195.917969 129.152344 194.144531 127.269531 191.851562 127.269531 L 183.71875 127.269531 C 181.53125 127.269531 179.65625 129.046875 179.65625 131.34375 L 179.65625 192.101562 C 179.65625 194.292969 181.425781 188.03125 183.71875 188.03125 Z M 183.71875 188.03125" fill-rule="evenodd"/><g clip-path="url(#c)"><path fill="#F6F6E9" d="M 202.171875 189.074219 L 210.304688 189.074219 C 212.492188 189.074219 214.367188 190.847656 214.367188 193.144531 L 214.367188 112.761719 C 214.367188 110.566406 212.597656 108.6875 210.304688 108.6875 L 202.171875 108.6875 C 199.984375 108.6875 198.105469 110.464844 198.105469 112.761719 L 198.105469 193.144531 C 198.105469 190.953125 199.878906 189.074219 202.171875 189.074219 Z M 202.171875 189.074219" fill-rule="evenodd"/></g></svg>