<svg id="visual" viewBox="0 0 1500 1000" width="1500" height="1000" xmlns="http://www.w3.org/2000/svg" xmlns:xlink="http://www.w3.org/1999/xlink" version="1.1"><rect x="0" y="0" width="1500" height="1000" fill="#190b28"></rect><path d="M0 487L62.5 460.5C125 434 250 381 375 404.5C500 428 625 528 750 523.8C875 519.7 1000 411.3 1125 369.8C1250 328.3 1375 353.7 1437.5 366.3L1500 379L1500 0L1437.5 0C1375 0 1250 0 1125 0C1000 0 875 0 750 0C625 0 500 0 375 0C250 0 125 0 62.5 0L0 0Z" fill="#bf4578" stroke-linecap="round" stroke-linejoin="miter"></path></svg>