<svg xmlns="http://www.w3.org/2000/svg" width="375" viewBox="0 0 375 375" height="375" version="1.0"><defs><clipPath id="a"><path d="M 168 195 L 178 195 L 178 203.542969 L 168 203.542969 Z M 168 195"/></clipPath><clipPath id="b"><path d="M 131.050781 109.042969 L 244.300781 109.042969 L 244.300781 203.542969 L 131.050781 203.542969 Z M 131.050781 109.042969"/></clipPath></defs><path fill="#F46530" d="M 160.523438 143.242188 L 171.015625 143.242188 L 171.015625 153.730469 L 160.523438 153.730469 Z M 160.523438 143.242188" fill-rule="evenodd"/><path d="M 188.800781 135.003906 L 197.226562 135.003906 L 197.226562 143.433594 L 188.800781 143.433594 Z M 188.800781 135.003906" fill-rule="evenodd"/><path fill="#F46530" d="M 172.511719 155.503906 L 180.9375 155.503906 L 180.9375 163.925781 L 172.511719 163.925781 Z M 172.511719 155.503906" fill-rule="evenodd"/><path d="M 161.933594 164.679688 L 166.144531 164.679688 L 166.144531 168.890625 L 161.933594 168.890625 Z M 161.933594 164.679688" fill-rule="evenodd"/><path d="M 158.605469 131.964844 L 162.824219 131.964844 L 162.824219 136.179688 L 158.605469 136.179688 Z M 158.605469 131.964844" fill-rule="evenodd"/><path d="M 179.203125 143.757812 L 183.414062 143.757812 L 183.414062 147.96875 L 179.203125 147.96875 Z M 179.203125 143.757812" fill-rule="evenodd"/><path d="M 201.671875 131.449219 L 205.886719 131.449219 L 205.886719 135.660156 L 201.671875 135.660156 Z M 201.671875 131.449219" fill-rule="evenodd"/><path d="M 198.199219 123.585938 L 204.117188 123.585938 L 204.117188 129.503906 L 198.199219 129.503906 Z M 198.199219 123.585938" fill-rule="evenodd"/><path d="M 176.816406 114.789062 L 182.734375 114.789062 L 182.734375 120.703125 L 176.816406 120.703125 Z M 176.816406 114.789062" fill-rule="evenodd"/><path d="M 191.160156 121.316406 L 195.371094 121.316406 L 195.371094 125.527344 L 191.160156 125.527344 Z M 191.160156 121.316406" fill-rule="evenodd"/><path d="M 212.535156 134.210938 L 216.746094 134.210938 L 216.746094 138.421875 L 212.535156 138.421875 Z M 212.535156 134.210938" fill-rule="evenodd"/><path fill="#F46530" d="M 188.746094 147.464844 L 199.519531 147.464844 L 199.519531 158.234375 L 188.746094 158.234375 Z M 188.746094 147.464844" fill-rule="evenodd"/><path fill="#F46530" d="M 166.230469 175.027344 L 178.589844 175.027344 L 178.589844 187.386719 L 166.230469 187.386719 Z M 166.230469 175.027344" fill-rule="evenodd"/><path d="M 181.726562 167.039062 L 190.148438 167.039062 L 190.148438 175.46875 L 181.726562 175.46875 Z M 181.726562 167.039062" fill-rule="evenodd"/><path fill="#F46530" d="M 195 178.019531 L 203.421875 178.019531 L 203.421875 186.441406 L 195 186.441406 Z M 195 178.019531" fill-rule="evenodd"/><g clip-path="url(#a)"><path d="M 168.960938 195.117188 L 177.386719 195.117188 L 177.386719 203.542969 L 168.960938 203.542969 Z M 168.960938 195.117188" fill-rule="evenodd"/></g><path d="M 201.382812 143.8125 L 209.808594 143.8125 L 209.808594 152.238281 L 201.382812 152.238281 Z M 201.382812 143.8125" fill-rule="evenodd"/><path d="M 172.34375 166.59375 L 176.554688 166.59375 L 176.554688 170.804688 L 172.34375 170.804688 Z M 172.34375 166.59375" fill-rule="evenodd"/><path d="M 186.617188 160.417969 L 190.828125 160.417969 L 190.828125 164.632812 L 186.617188 164.632812 Z M 186.617188 160.417969" fill-rule="evenodd"/><path d="M 182.988281 181.269531 L 190.535156 181.269531 L 190.535156 188.808594 L 182.988281 188.808594 Z M 182.988281 181.269531" fill-rule="evenodd"/><path d="M 180.5625 196.382812 L 185.558594 196.382812 L 185.558594 201.371094 L 180.5625 201.371094 Z M 180.5625 196.382812" fill-rule="evenodd"/><path d="M 192.949219 164.421875 L 200.488281 164.421875 L 200.488281 171.960938 L 192.949219 171.960938 Z M 192.949219 164.421875" fill-rule="evenodd"/><path d="M 202.390625 157.273438 L 209.933594 157.273438 L 209.933594 164.8125 L 202.390625 164.8125 Z M 202.390625 157.273438" fill-rule="evenodd"/><path fill="#F46530" d="M 170.828125 125.648438 L 183.179688 125.648438 L 183.179688 138 L 170.828125 138 Z M 170.828125 125.648438" fill-rule="evenodd"/><g clip-path="url(#b)"><path d="M 131.230469 152.253906 C 133.746094 152.1875 135.8125 151.515625 137.40625 150.207031 C 138.984375 148.914062 140.042969 147.140625 140.578125 144.890625 C 141.101562 142.628906 141.367188 138.746094 141.402344 133.277344 C 141.433594 127.808594 141.535156 124.199219 141.703125 122.472656 C 142.003906 119.722656 142.539062 117.5 143.34375 115.828125 C 144.152344 114.167969 145.144531 112.828125 146.316406 111.816406 C 147.507812 110.824219 149.019531 110.054688 150.847656 109.535156 C 152.089844 109.214844 154.121094 109.046875 156.9375 109.046875 L 159.6875 109.046875 L 159.6875 116.765625 L 158.160156 116.765625 C 154.753906 116.765625 152.503906 117.371094 151.378906 118.613281 C 150.273438 119.84375 149.71875 122.574219 149.71875 126.839844 C 149.71875 135.433594 149.53125 140.851562 149.164062 143.121094 C 148.582031 146.628906 147.570312 149.332031 146.144531 151.226562 C 144.71875 153.140625 142.484375 154.816406 139.429688 156.292969 C 143.039062 157.800781 145.65625 160.101562 147.28125 163.207031 C 148.894531 166.292969 149.710938 171.375 149.710938 178.429688 C 149.710938 184.804688 149.761719 188.613281 149.898438 189.824219 C 150.167969 192.054688 150.820312 193.621094 151.894531 194.503906 C 152.957031 195.378906 155.050781 195.828125 158.15625 195.828125 L 159.683594 195.828125 L 159.683594 203.546875 L 156.933594 203.546875 C 153.726562 203.546875 151.398438 203.28125 149.953125 202.757812 C 147.851562 202.007812 146.125 200.78125 144.746094 199.101562 C 143.371094 197.40625 142.46875 195.273438 142.0625 192.675781 C 141.660156 190.089844 141.425781 185.847656 141.390625 179.9375 C 141.355469 174.046875 141.089844 169.96875 140.566406 167.707031 C 140.03125 165.4375 138.972656 163.664062 137.394531 162.351562 C 135.800781 161.027344 133.734375 160.335938 131.21875 160.285156 L 131.21875 152.265625 Z M 244.121094 152.253906 L 244.121094 160.273438 C 241.605469 160.324219 239.539062 161.015625 237.945312 162.339844 C 236.371094 163.652344 235.308594 165.425781 234.773438 167.65625 C 234.257812 169.90625 233.96875 173.765625 233.949219 179.234375 C 233.914062 184.722656 233.816406 188.3125 233.648438 190.058594 C 233.347656 192.84375 232.808594 195.058594 232.007812 196.71875 C 231.199219 198.378906 230.214844 199.703125 229.035156 200.695312 C 227.84375 201.699219 226.332031 202.457031 224.503906 202.976562 C 223.261719 203.34375 221.230469 203.53125 218.414062 203.53125 L 215.65625 203.53125 L 215.65625 195.808594 L 217.1875 195.808594 C 220.589844 195.808594 222.84375 195.191406 223.96875 193.964844 C 225.074219 192.734375 225.628906 189.96875 225.628906 185.671875 C 225.628906 177.484375 225.777344 172.277344 226.078125 170.082031 C 226.601562 166.460938 227.65625 163.535156 229.21875 161.359375 C 230.796875 159.191406 233.03125 157.496094 235.917969 156.273438 C 232.140625 154.480469 229.492188 152.097656 227.945312 149.125 C 226.398438 146.152344 225.628906 141.152344 225.628906 134.109375 C 225.628906 127.710938 225.5625 123.902344 225.394531 122.644531 C 225.160156 120.445312 224.519531 118.921875 223.445312 118.050781 C 222.386719 117.195312 220.289062 116.753906 217.1875 116.753906 L 215.65625 116.753906 L 215.65625 109.035156 L 218.414062 109.035156 C 221.621094 109.035156 223.949219 109.289062 225.394531 109.824219 C 227.492188 110.546875 229.21875 111.753906 230.597656 113.445312 C 231.976562 115.15625 232.878906 117.304688 233.28125 119.890625 C 233.6875 122.496094 233.921875 126.738281 233.957031 132.628906 C 233.972656 138.535156 234.257812 142.597656 234.78125 144.847656 C 235.316406 147.097656 236.375 148.875 237.953125 150.183594 C 239.546875 151.496094 241.609375 152.183594 244.125 152.25 Z M 244.121094 152.253906"/></g></svg>