<svg id="visual" viewBox="0 0 1500 1000" width="1500" height="1000" xmlns="http://www.w3.org/2000/svg" xmlns:xlink="http://www.w3.org/1999/xlink" version="1.1"><path d="M0 181L22.7 167.7C45.3 154.3 90.7 127.7 136.2 109.3C181.7 91 227.3 81 272.8 92.7C318.3 104.3 363.7 137.7 409 161C454.3 184.3 499.7 197.7 545.2 204.3C590.7 211 636.3 211 681.8 197.7C727.3 184.3 772.7 157.7 818.2 154.3C863.7 151 909.3 171 954.8 166C1000.3 161 1045.7 131 1091 129.3C1136.3 127.7 1181.7 154.3 1227.2 174.3C1272.7 194.3 1318.3 207.7 1363.8 209.3C1409.3 211 1454.7 201 1477.3 196L1500 191L1500 0L1477.3 0C1454.7 0 1409.3 0 1363.8 0C1318.3 0 1272.7 0 1227.2 0C1181.7 0 1136.3 0 1091 0C1045.7 0 1000.3 0 954.8 0C909.3 0 863.7 0 818.2 0C772.7 0 727.3 0 681.8 0C636.3 0 590.7 0 545.2 0C499.7 0 454.3 0 409 0C363.7 0 318.3 0 272.8 0C227.3 0 181.7 0 136.2 0C90.7 0 45.3 0 22.7 0L0 0Z" fill="#c65cc5"></path><path d="M0 331L22.7 321C45.3 311 90.7 291 136.2 269.3C181.7 247.7 227.3 224.3 272.8 229.3C318.3 234.3 363.7 267.7 409 281C454.3 294.3 499.7 287.7 545.2 282.7C590.7 277.7 636.3 274.3 681.8 271C727.3 267.7 772.7 264.3 818.2 262.7C863.7 261 909.3 261 954.8 256C1000.3 251 1045.7 241 1091 241C1136.3 241 1181.7 251 1227.2 261C1272.7 271 1318.3 281 1363.8 294.3C1409.3 307.7 1454.7 324.3 1477.3 332.7L1500 341L1500 189L1477.3 194C1454.7 199 1409.3 209 1363.8 207.3C1318.3 205.7 1272.7 192.3 1227.2 172.3C1181.7 152.3 1136.3 125.7 1091 127.3C1045.7 129 1000.3 159 954.8 164C909.3 169 863.7 149 818.2 152.3C772.7 155.7 727.3 182.3 681.8 195.7C636.3 209 590.7 209 545.2 202.3C499.7 195.7 454.3 182.3 409 159C363.7 135.7 318.3 102.3 272.8 90.7C227.3 79 181.7 89 136.2 107.3C90.7 125.7 45.3 152.3 22.7 165.7L0 179Z" fill="#ba41b9"></path><path d="M0 461L22.7 446C45.3 431 90.7 401 136.2 389.3C181.7 377.7 227.3 384.3 272.8 386C318.3 387.7 363.7 384.3 409 409.3C454.3 434.3 499.7 487.7 545.2 492.7C590.7 497.7 636.3 454.3 681.8 451C727.3 447.7 772.7 484.3 818.2 481C863.7 477.7 909.3 434.3 954.8 417.7C1000.3 401 1045.7 411 1091 421C1136.3 431 1181.7 441 1227.2 461C1272.7 481 1318.3 511 1363.8 526C1409.3 541 1454.7 541 1477.3 541L1500 541L1500 339L1477.3 330.7C1454.7 322.3 1409.3 305.7 1363.8 292.3C1318.3 279 1272.7 269 1227.2 259C1181.7 249 1136.3 239 1091 239C1045.7 239 1000.3 249 954.8 254C909.3 259 863.7 259 818.2 260.7C772.7 262.3 727.3 265.7 681.8 269C636.3 272.3 590.7 275.7 545.2 280.7C499.7 285.7 454.3 292.3 409 279C363.7 265.7 318.3 232.3 272.8 227.3C227.3 222.3 181.7 245.7 136.2 267.3C90.7 289 45.3 309 22.7 319L0 329Z" fill="#ae1bac"></path><path d="M0 741L22.7 751C45.3 761 90.7 781 136.2 751C181.7 721 227.3 641 272.8 607.7C318.3 574.3 363.7 587.7 409 621C454.3 654.3 499.7 707.7 545.2 722.7C590.7 737.7 636.3 714.3 681.8 724.3C727.3 734.3 772.7 777.7 818.2 762.7C863.7 747.7 909.3 674.3 954.8 642.7C1000.3 611 1045.7 621 1091 626C1136.3 631 1181.7 631 1227.2 671C1272.7 711 1318.3 791 1363.8 834.3C1409.3 877.7 1454.7 884.3 1477.3 887.7L1500 891L1500 539L1477.3 539C1454.7 539 1409.3 539 1363.8 524C1318.3 509 1272.7 479 1227.2 459C1181.7 439 1136.3 429 1091 419C1045.7 409 1000.3 399 954.8 415.7C909.3 432.3 863.7 475.7 818.2 479C772.7 482.3 727.3 445.7 681.8 449C636.3 452.3 590.7 495.7 545.2 490.7C499.7 485.7 454.3 432.3 409 407.3C363.7 382.3 318.3 385.7 272.8 384C227.3 382.3 181.7 375.7 136.2 387.3C90.7 399 45.3 429 22.7 444L0 459Z" fill="#971895"></path><path d="M0 1001L22.7 1001C45.3 1001 90.7 1001 136.2 1001C181.7 1001 227.3 1001 272.8 1001C318.3 1001 363.7 1001 409 1001C454.3 1001 499.7 1001 545.2 1001C590.7 1001 636.3 1001 681.8 1001C727.3 1001 772.7 1001 818.2 1001C863.7 1001 909.3 1001 954.8 1001C1000.3 1001 1045.7 1001 1091 1001C1136.3 1001 1181.7 1001 1227.2 1001C1272.7 1001 1318.3 1001 1363.8 1001C1409.3 1001 1454.7 1001 1477.3 1001L1500 1001L1500 889L1477.3 885.7C1454.7 882.3 1409.3 875.7 1363.8 832.3C1318.3 789 1272.7 709 1227.2 669C1181.7 629 1136.3 629 1091 624C1045.7 619 1000.3 609 954.8 640.7C909.3 672.3 863.7 745.7 818.2 760.7C772.7 775.7 727.3 732.3 681.8 722.3C636.3 712.3 590.7 735.7 545.2 720.7C499.7 705.7 454.3 652.3 409 619C363.7 585.7 318.3 572.3 272.8 605.7C227.3 639 181.7 719 136.2 749C90.7 779 45.3 759 22.7 749L0 739Z" fill="#80157e"></path></svg>