<svg id="visual" viewBox="0 0 1500 1000" width="1500" height="1000" xmlns="http://www.w3.org/2000/svg" xmlns:xlink="http://www.w3.org/1999/xlink" version="1.1"><rect x="0" y="0" width="1500" height="1000" fill="#bf4578"></rect><path d="M0 446L62.5 464.2C125 482.3 250 518.7 375 503.3C500 488 625 421 750 411.2C875 401.3 1000 448.7 1125 462.5C1250 476.3 1375 456.7 1437.5 446.8L1500 437L1500 1001L1437.5 1001C1375 1001 1250 1001 1125 1001C1000 1001 875 1001 750 1001C625 1001 500 1001 375 1001C250 1001 125 1001 62.5 1001L0 1001Z" fill="#190b28" stroke-linecap="round" stroke-linejoin="miter"></path></svg>