<svg id="visual" viewBox="0 0 1500 1000" width="1500" height="1000" xmlns="http://www.w3.org/2000/svg" xmlns:xlink="http://www.w3.org/1999/xlink" version="1.1"><rect x="0" y="0" width="1500" height="1000" fill="#bf4578"></rect><path d="M0 620L62.5 631.5C125 643 250 666 375 655.3C500 644.7 625 600.3 750 618.5C875 636.7 1000 717.3 1125 722.7C1250 728 1375 658 1437.5 623L1500 588L1500 1001L1437.5 1001C1375 1001 1250 1001 1125 1001C1000 1001 875 1001 750 1001C625 1001 500 1001 375 1001C250 1001 125 1001 62.5 1001L0 1001Z" fill="#190b28" stroke-linecap="round" stroke-linejoin="miter"></path></svg>