<svg id="visual" viewBox="0 0 960 550" width="960" height="550" xmlns="http://www.w3.org/2000/svg" xmlns:xlink="http://www.w3.org/1999/xlink" version="1.1"><rect x="0" y="0" width="960" height="550" fill="#190B28"></rect><path d="M0 310L26.7 298C53.3 286 106.7 262 160 252.3C213.3 242.7 266.7 247.3 320 260.3C373.3 273.3 426.7 294.7 480 303.7C533.3 312.7 586.7 309.3 640 295.5C693.3 281.7 746.7 257.3 800 253.8C853.3 250.3 906.7 267.7 933.3 276.3L960 285L960 0L933.3 0C906.7 0 853.3 0 800 0C746.7 0 693.3 0 640 0C586.7 0 533.3 0 480 0C426.7 0 373.3 0 320 0C266.7 0 213.3 0 160 0C106.7 0 53.3 0 26.7 0L0 0Z" fill="#bf4578" stroke-linecap="round" stroke-linejoin="miter"></path></svg>